<mxfile host="app.diagrams.net" modified="2024-05-23T18:12:08.628Z" agent="Mozilla/5.0 (Windows NT 10.0; Win64; x64) AppleWebKit/537.36 (KHTML, like Gecko) Chrome/124.0.0.0 Safari/537.36" etag="mRkv0lr5XCm7cMCcEO1j" version="24.4.4" type="device">
  <diagram name="Page-1" id="38b20595-45e3-9b7f-d5ca-b57f44c5b66d">
    <mxGraphModel dx="2580" dy="1325" grid="1" gridSize="10" guides="1" tooltips="1" connect="1" arrows="1" fold="1" page="1" pageScale="1" pageWidth="1100" pageHeight="850" background="none" math="0" shadow="0">
      <root>
        <mxCell id="0" />
        <mxCell id="1" parent="0" />
        <mxCell id="2VdIf14b7p2zbbm4s5Y1-204" value="P8" style="ellipse;whiteSpace=wrap;html=1;aspect=fixed;" vertex="1" parent="1">
          <mxGeometry x="579" y="412" width="54.5" height="54.5" as="geometry" />
        </mxCell>
        <mxCell id="2VdIf14b7p2zbbm4s5Y1-143" value="" style="verticalLabelPosition=bottom;html=1;verticalAlign=top;align=center;shape=mxgraph.floorplan.doorRight;aspect=fixed;rotation=90;" vertex="1" parent="1">
          <mxGeometry x="1572.71" y="730" width="120" height="127.51" as="geometry" />
        </mxCell>
        <mxCell id="2VdIf14b7p2zbbm4s5Y1-128" value="" style="verticalLabelPosition=bottom;html=1;verticalAlign=top;align=center;shape=mxgraph.floorplan.doorRight;aspect=fixed;rotation=90;" vertex="1" parent="1">
          <mxGeometry x="1572.71" y="859.78" width="120" height="127.51" as="geometry" />
        </mxCell>
        <mxCell id="48ef80bc37b76060-126" value="" style="verticalLabelPosition=bottom;html=1;verticalAlign=top;align=center;strokeWidth=1;shape=mxgraph.floorplan.doorLeft;rounded=0;shadow=0;comic=0;fontFamily=Verdana;fontSize=12;" parent="1" vertex="1">
          <mxGeometry x="1220" y="1198" width="80" height="85" as="geometry" />
        </mxCell>
        <mxCell id="48ef80bc37b76060-127" value="" style="verticalLabelPosition=bottom;html=1;verticalAlign=top;align=center;strokeWidth=1;shape=mxgraph.floorplan.wallCorner;fillColor=#000000;rounded=0;shadow=0;comic=0;fontFamily=Verdana;fontSize=12;" parent="1" vertex="1">
          <mxGeometry x="394" y="243" width="4" height="477" as="geometry" />
        </mxCell>
        <mxCell id="48ef80bc37b76060-128" value="" style="verticalLabelPosition=bottom;html=1;verticalAlign=top;align=center;strokeWidth=1;shape=mxgraph.floorplan.wallU;fillColor=#000000;rounded=0;shadow=0;comic=0;fontFamily=Verdana;fontSize=12;rotation=90;" parent="1" vertex="1">
          <mxGeometry x="678.5" y="-37.5" width="1210" height="1771" as="geometry" />
        </mxCell>
        <mxCell id="48ef80bc37b76060-130" value="" style="verticalLabelPosition=bottom;html=1;verticalAlign=top;align=center;strokeWidth=1;shape=mxgraph.floorplan.wallU;fillColor=#000000;rounded=0;shadow=0;comic=0;fontFamily=Verdana;fontSize=12;rotation=90;" parent="1" vertex="1">
          <mxGeometry x="788" y="701" width="480" height="338" as="geometry" />
        </mxCell>
        <mxCell id="48ef80bc37b76060-133" value="" style="verticalLabelPosition=bottom;html=1;verticalAlign=top;align=center;strokeWidth=1;shape=mxgraph.floorplan.wallCorner;fillColor=#000000;direction=south;rounded=0;shadow=0;comic=0;fontFamily=Verdana;fontSize=12;" parent="1" vertex="1">
          <mxGeometry x="1946.5" y="650" width="221" height="299" as="geometry" />
        </mxCell>
        <mxCell id="48ef80bc37b76060-134" value="" style="verticalLabelPosition=bottom;html=1;verticalAlign=top;align=center;strokeWidth=1;shape=mxgraph.floorplan.wallCorner;fillColor=#000000;direction=west;rounded=0;shadow=0;comic=0;fontFamily=Verdana;fontSize=12;" parent="1" vertex="1">
          <mxGeometry x="1870" y="939" width="297.5" height="141" as="geometry" />
        </mxCell>
        <mxCell id="48ef80bc37b76060-149" value="" style="verticalLabelPosition=bottom;html=1;verticalAlign=top;align=center;strokeWidth=1;shape=mxgraph.floorplan.wall;fillColor=#000000;rounded=0;shadow=0;comic=0;fontFamily=Verdana;fontSize=12;" parent="1" vertex="1">
          <mxGeometry x="394" y="1160" width="299" height="88" as="geometry" />
        </mxCell>
        <mxCell id="48ef80bc37b76060-157" value="" style="verticalLabelPosition=bottom;html=1;verticalAlign=top;align=center;strokeWidth=1;shape=mxgraph.floorplan.wall;fillColor=#000000;direction=south;rounded=0;shadow=0;comic=0;fontFamily=Verdana;fontSize=12;" parent="1" vertex="1">
          <mxGeometry x="850" y="1200" width="10" height="248" as="geometry" />
        </mxCell>
        <mxCell id="48ef80bc37b76060-162" value="" style="verticalLabelPosition=bottom;html=1;verticalAlign=top;align=center;strokeWidth=1;shape=mxgraph.floorplan.wall;fillColor=#000000;direction=south;rounded=0;shadow=0;comic=0;fontFamily=Verdana;fontSize=12;" parent="1" vertex="1">
          <mxGeometry x="1220" y="1197.5" width="10" height="251" as="geometry" />
        </mxCell>
        <mxCell id="48ef80bc37b76060-169" value="" style="verticalLabelPosition=bottom;html=1;verticalAlign=top;align=center;strokeWidth=1;shape=mxgraph.floorplan.wall;fillColor=#000000;direction=south;rounded=0;shadow=0;comic=0;fontFamily=Verdana;fontSize=12;" parent="1" vertex="1">
          <mxGeometry x="1519.5" y="1200" width="10" height="253" as="geometry" />
        </mxCell>
        <mxCell id="48ef80bc37b76060-178" value="" style="verticalLabelPosition=bottom;html=1;verticalAlign=top;align=center;strokeWidth=1;shape=mxgraph.floorplan.wallCorner;fillColor=#000000;rounded=0;shadow=0;comic=0;fontFamily=Verdana;fontSize=12;" parent="1" vertex="1">
          <mxGeometry x="1835" y="1198" width="8" height="250" as="geometry" />
        </mxCell>
        <mxCell id="48ef80bc37b76060-260" value="" style="verticalLabelPosition=bottom;html=1;verticalAlign=top;align=center;strokeWidth=1;shape=mxgraph.floorplan.wall;fillColor=#000000;direction=south;rounded=0;shadow=0;comic=0;fontFamily=Verdana;fontSize=12;" parent="1" vertex="1">
          <mxGeometry x="640" y="256" width="10" height="254" as="geometry" />
        </mxCell>
        <mxCell id="48ef80bc37b76060-264" value="" style="verticalLabelPosition=bottom;html=1;verticalAlign=top;align=center;strokeWidth=1;shape=mxgraph.floorplan.wall;fillColor=#000000;rounded=0;shadow=0;comic=0;fontFamily=Verdana;fontSize=12;" parent="1" vertex="1">
          <mxGeometry x="720" y="483" width="352.5" height="10" as="geometry" />
        </mxCell>
        <mxCell id="48ef80bc37b76060-299" value="" style="verticalLabelPosition=bottom;html=1;verticalAlign=top;align=center;strokeWidth=1;shape=mxgraph.floorplan.wall;fillColor=#000000;rounded=0;shadow=0;comic=0;fontFamily=Verdana;fontSize=12;" parent="1" vertex="1">
          <mxGeometry x="1930" y="483" width="230" height="10" as="geometry" />
        </mxCell>
        <mxCell id="48ef80bc37b76060-300" value="" style="verticalLabelPosition=bottom;html=1;verticalAlign=top;align=center;strokeWidth=1;shape=mxgraph.floorplan.wall;fillColor=#000000;direction=south;rounded=0;shadow=0;comic=0;fontFamily=Verdana;fontSize=12;" parent="1" vertex="1">
          <mxGeometry x="1843" y="251" width="10" height="244" as="geometry" />
        </mxCell>
        <mxCell id="48ef80bc37b76060-308" value="" style="verticalLabelPosition=bottom;html=1;verticalAlign=top;align=center;strokeWidth=1;shape=mxgraph.floorplan.wall;fillColor=#000000;rounded=0;shadow=0;comic=0;fontFamily=Verdana;fontSize=12;" parent="1" vertex="1">
          <mxGeometry x="1620" y="483" width="230" height="10" as="geometry" />
        </mxCell>
        <mxCell id="48ef80bc37b76060-309" value="" style="verticalLabelPosition=bottom;html=1;verticalAlign=top;align=center;strokeWidth=1;shape=mxgraph.floorplan.wall;fillColor=#000000;direction=south;rounded=0;shadow=0;comic=0;fontFamily=Verdana;fontSize=12;" parent="1" vertex="1">
          <mxGeometry x="1528" y="246" width="10" height="244" as="geometry" />
        </mxCell>
        <mxCell id="48ef80bc37b76060-317" value="" style="verticalLabelPosition=bottom;html=1;verticalAlign=top;align=center;strokeWidth=1;shape=mxgraph.floorplan.wall;fillColor=#000000;rounded=0;shadow=0;comic=0;fontFamily=Verdana;fontSize=12;" parent="1" vertex="1">
          <mxGeometry x="1310" y="483" width="230" height="10" as="geometry" />
        </mxCell>
        <mxCell id="48ef80bc37b76060-326" value="" style="verticalLabelPosition=bottom;html=1;verticalAlign=top;align=center;strokeWidth=1;shape=mxgraph.floorplan.wall;fillColor=#000000;rounded=0;shadow=0;comic=0;fontFamily=Verdana;fontSize=12;" parent="1" vertex="1">
          <mxGeometry x="1010" y="483" width="210" height="10" as="geometry" />
        </mxCell>
        <mxCell id="48ef80bc37b76060-327" value="" style="verticalLabelPosition=bottom;html=1;verticalAlign=top;align=center;strokeWidth=1;shape=mxgraph.floorplan.wall;fillColor=#000000;direction=south;rounded=0;shadow=0;comic=0;fontFamily=Verdana;fontSize=12;" parent="1" vertex="1">
          <mxGeometry x="1217" y="247" width="10" height="244" as="geometry" />
        </mxCell>
        <mxCell id="48ef80bc37b76060-344" value="" style="verticalLabelPosition=bottom;html=1;verticalAlign=top;align=center;strokeWidth=1;shape=mxgraph.floorplan.wall;fillColor=#000000;direction=south;rounded=0;shadow=0;comic=0;fontFamily=Verdana;fontSize=12;" parent="1" vertex="1">
          <mxGeometry x="1370" y="638" width="10" height="452" as="geometry" />
        </mxCell>
        <mxCell id="48ef80bc37b76060-359" value="" style="verticalLabelPosition=bottom;html=1;verticalAlign=top;align=center;strokeWidth=1;shape=mxgraph.floorplan.wallCorner;fillColor=#000000;direction=south;rounded=0;shadow=0;comic=0;fontFamily=Verdana;fontSize=12;" parent="1" vertex="1">
          <mxGeometry x="1370" y="631" width="326" height="114" as="geometry" />
        </mxCell>
        <mxCell id="48ef80bc37b76060-366" value="" style="verticalLabelPosition=bottom;html=1;verticalAlign=top;align=center;strokeWidth=1;shape=mxgraph.floorplan.wallCorner;fillColor=#000000;direction=west;rounded=0;shadow=0;comic=0;fontFamily=Verdana;fontSize=12;" parent="1" vertex="1">
          <mxGeometry x="1373" y="980" width="323" height="110" as="geometry" />
        </mxCell>
        <mxCell id="48ef80bc37b76060-373" value="" style="verticalLabelPosition=bottom;html=1;verticalAlign=top;align=center;strokeWidth=1;shape=mxgraph.floorplan.wall;fillColor=#000000;rounded=0;shadow=0;comic=0;fontFamily=Verdana;fontSize=12;" parent="1" vertex="1">
          <mxGeometry x="1860" y="650" width="231" height="10" as="geometry" />
        </mxCell>
        <mxCell id="RDOypKp-4vHWDK8OAPXg-1" value="" style="verticalLabelPosition=bottom;html=1;verticalAlign=top;align=center;strokeWidth=1;shape=mxgraph.floorplan.wallCorner;fillColor=#000000;rounded=0;shadow=0;comic=0;fontFamily=Verdana;fontSize=12;" parent="1" vertex="1">
          <mxGeometry x="392" y="960" width="10" height="493" as="geometry" />
        </mxCell>
        <mxCell id="RDOypKp-4vHWDK8OAPXg-4" value="" style="verticalLabelPosition=bottom;html=1;verticalAlign=top;align=center;strokeWidth=1;shape=mxgraph.floorplan.doorDouble;rounded=0;shadow=0;comic=0;fontFamily=Verdana;fontSize=12;flipV=1;rotation=90;" parent="1" vertex="1">
          <mxGeometry x="336" y="775.5" width="236.25" height="123.25" as="geometry" />
        </mxCell>
        <mxCell id="RDOypKp-4vHWDK8OAPXg-12" value="" style="verticalLabelPosition=bottom;html=1;verticalAlign=top;align=center;strokeWidth=1;shape=mxgraph.floorplan.wall;fillColor=#000000;direction=south;rounded=0;shadow=0;comic=0;fontFamily=Verdana;fontSize=12;rotation=90;" parent="1" vertex="1">
          <mxGeometry x="1529.5" y="704" width="10" height="313" as="geometry" />
        </mxCell>
        <mxCell id="RDOypKp-4vHWDK8OAPXg-14" value="" style="verticalLabelPosition=bottom;html=1;verticalAlign=top;align=center;strokeWidth=1;shape=mxgraph.floorplan.wall;fillColor=#000000;rounded=0;shadow=0;comic=0;fontFamily=Verdana;fontSize=12;" parent="1" vertex="1">
          <mxGeometry x="987" y="1199" width="230" height="10" as="geometry" />
        </mxCell>
        <mxCell id="RDOypKp-4vHWDK8OAPXg-15" value="" style="verticalLabelPosition=bottom;html=1;verticalAlign=top;align=center;strokeWidth=1;shape=mxgraph.floorplan.wall;fillColor=#000000;rounded=0;shadow=0;comic=0;fontFamily=Verdana;fontSize=12;" parent="1" vertex="1">
          <mxGeometry x="1299.5" y="1198" width="230" height="10" as="geometry" />
        </mxCell>
        <mxCell id="RDOypKp-4vHWDK8OAPXg-16" value="" style="verticalLabelPosition=bottom;html=1;verticalAlign=top;align=center;strokeWidth=1;shape=mxgraph.floorplan.wall;fillColor=#000000;rounded=0;shadow=0;comic=0;fontFamily=Verdana;fontSize=12;" parent="1" vertex="1">
          <mxGeometry x="1613" y="1198" width="230" height="10" as="geometry" />
        </mxCell>
        <mxCell id="RDOypKp-4vHWDK8OAPXg-17" value="" style="verticalLabelPosition=bottom;html=1;verticalAlign=top;align=center;strokeWidth=1;shape=mxgraph.floorplan.doorLeft;rounded=0;shadow=0;comic=0;fontFamily=Verdana;fontSize=12;" parent="1" vertex="1">
          <mxGeometry x="1533" y="1197.5" width="80" height="85" as="geometry" />
        </mxCell>
        <mxCell id="RDOypKp-4vHWDK8OAPXg-18" value="" style="verticalLabelPosition=bottom;html=1;verticalAlign=top;align=center;strokeWidth=1;shape=mxgraph.floorplan.doorLeft;rounded=0;shadow=0;comic=0;fontFamily=Verdana;fontSize=12;" parent="1" vertex="1">
          <mxGeometry x="860" y="1200" width="127" height="85" as="geometry" />
        </mxCell>
        <mxCell id="RDOypKp-4vHWDK8OAPXg-19" value="" style="verticalLabelPosition=bottom;html=1;verticalAlign=top;align=center;strokeWidth=1;shape=mxgraph.floorplan.doorLeft;rounded=0;shadow=0;comic=0;fontFamily=Verdana;fontSize=12;rotation=-180;" parent="1" vertex="1">
          <mxGeometry x="1230" y="408" width="80" height="85" as="geometry" />
        </mxCell>
        <mxCell id="RDOypKp-4vHWDK8OAPXg-20" value="" style="verticalLabelPosition=bottom;html=1;verticalAlign=top;align=center;strokeWidth=1;shape=mxgraph.floorplan.doorLeft;rounded=0;shadow=0;comic=0;fontFamily=Verdana;fontSize=12;rotation=-180;" parent="1" vertex="1">
          <mxGeometry x="1853" y="410" width="80" height="85" as="geometry" />
        </mxCell>
        <mxCell id="RDOypKp-4vHWDK8OAPXg-21" value="" style="verticalLabelPosition=bottom;html=1;verticalAlign=top;align=center;strokeWidth=1;shape=mxgraph.floorplan.doorLeft;rounded=0;shadow=0;comic=0;fontFamily=Verdana;fontSize=12;rotation=-180;" parent="1" vertex="1">
          <mxGeometry x="1540" y="420" width="80" height="75" as="geometry" />
        </mxCell>
        <mxCell id="RDOypKp-4vHWDK8OAPXg-25" value="" style="verticalLabelPosition=bottom;html=1;verticalAlign=top;align=center;shape=mxgraph.floorplan.opening;" parent="1" vertex="1">
          <mxGeometry x="402" y="631" width="248" height="10" as="geometry" />
        </mxCell>
        <mxCell id="RDOypKp-4vHWDK8OAPXg-26" value="" style="verticalLabelPosition=bottom;html=1;verticalAlign=top;align=center;shape=mxgraph.floorplan.opening;rotation=90;" parent="1" vertex="1">
          <mxGeometry x="580" y="570" width="130" height="10" as="geometry" />
        </mxCell>
        <mxCell id="RDOypKp-4vHWDK8OAPXg-27" value="" style="verticalLabelPosition=bottom;html=1;verticalAlign=top;align=center;shape=mxgraph.floorplan.opening;rotation=90;" parent="1" vertex="1">
          <mxGeometry x="615" y="865" width="480" height="10" as="geometry" />
        </mxCell>
        <mxCell id="RDOypKp-4vHWDK8OAPXg-30" value="" style="verticalLabelPosition=bottom;html=1;verticalAlign=top;align=center;shape=mxgraph.floorplan.couch;rotation=-90;" parent="1" vertex="1">
          <mxGeometry x="375" y="352" width="130" height="68" as="geometry" />
        </mxCell>
        <mxCell id="RDOypKp-4vHWDK8OAPXg-31" value="" style="verticalLabelPosition=bottom;html=1;verticalAlign=top;align=center;shape=mxgraph.floorplan.sofa;rotation=-180;" parent="1" vertex="1">
          <mxGeometry x="474" y="483" width="76" height="53.26" as="geometry" />
        </mxCell>
        <mxCell id="RDOypKp-4vHWDK8OAPXg-33" value="" style="verticalLabelPosition=bottom;html=1;verticalAlign=top;align=center;shape=mxgraph.floorplan.crt_tv;rotation=90;" parent="1" vertex="1">
          <mxGeometry x="590" y="372" width="60" height="40" as="geometry" />
        </mxCell>
        <mxCell id="RDOypKp-4vHWDK8OAPXg-35" value="" style="verticalLabelPosition=bottom;html=1;verticalAlign=top;align=center;shape=mxgraph.floorplan.printer;rotation=0;" parent="1" vertex="1">
          <mxGeometry x="1020" y="277" width="70" height="131" as="geometry" />
        </mxCell>
        <mxCell id="RDOypKp-4vHWDK8OAPXg-39" value=",,,." style="verticalLabelPosition=bottom;html=1;verticalAlign=top;align=center;shape=mxgraph.floorplan.office_chair;shadow=0;rotation=-180;" parent="1" vertex="1">
          <mxGeometry x="1145" y="329.5" width="30" height="26" as="geometry" />
        </mxCell>
        <mxCell id="RDOypKp-4vHWDK8OAPXg-40" value="" style="shape=rect;shadow=0;html=1;" parent="1" vertex="1">
          <mxGeometry x="1120" y="277" width="80" height="50" as="geometry" />
        </mxCell>
        <mxCell id="RDOypKp-4vHWDK8OAPXg-41" value="" style="verticalLabelPosition=bottom;html=1;verticalAlign=top;align=center;shape=mxgraph.floorplan.workstation;shadow=0;flipV=1;rotation=-180;" parent="1" vertex="1">
          <mxGeometry x="1135" y="277" width="50" height="40" as="geometry" />
        </mxCell>
        <mxCell id="RDOypKp-4vHWDK8OAPXg-42" value="" style="verticalLabelPosition=bottom;html=1;verticalAlign=top;align=center;shape=mxgraph.floorplan.sink_double2;rotation=0;" parent="1" vertex="1">
          <mxGeometry x="660" y="257" width="80" height="35" as="geometry" />
        </mxCell>
        <mxCell id="RDOypKp-4vHWDK8OAPXg-43" value=",,,." style="verticalLabelPosition=bottom;html=1;verticalAlign=top;align=center;shape=mxgraph.floorplan.office_chair;shadow=0;rotation=90;" parent="1" vertex="1">
          <mxGeometry x="1100" y="360" width="30" height="26" as="geometry" />
        </mxCell>
        <mxCell id="RDOypKp-4vHWDK8OAPXg-44" value="" style="verticalLabelPosition=bottom;html=1;verticalAlign=top;align=center;shape=mxgraph.floorplan.dresser;" parent="1" vertex="1">
          <mxGeometry x="760" y="257" width="100" height="65" as="geometry" />
        </mxCell>
        <mxCell id="RDOypKp-4vHWDK8OAPXg-45" value="" style="verticalLabelPosition=bottom;html=1;verticalAlign=top;align=center;shape=mxgraph.floorplan.dresser;" parent="1" vertex="1">
          <mxGeometry x="860" y="257" width="100" height="65" as="geometry" />
        </mxCell>
        <mxCell id="RDOypKp-4vHWDK8OAPXg-46" value="" style="verticalLabelPosition=bottom;html=1;verticalAlign=top;align=center;shape=mxgraph.floorplan.plant;" parent="1" vertex="1">
          <mxGeometry x="800" y="433" width="47" height="51" as="geometry" />
        </mxCell>
        <mxCell id="RDOypKp-4vHWDK8OAPXg-47" value="" style="verticalLabelPosition=bottom;html=1;verticalAlign=top;align=center;shape=mxgraph.floorplan.desk_corner;" parent="1" vertex="1">
          <mxGeometry x="860" y="730" width="150" height="150" as="geometry" />
        </mxCell>
        <mxCell id="RDOypKp-4vHWDK8OAPXg-48" value="" style="verticalLabelPosition=bottom;html=1;verticalAlign=top;align=center;shape=mxgraph.floorplan.desk_corner;rotation=-90;" parent="1" vertex="1">
          <mxGeometry x="860" y="880" width="150" height="150" as="geometry" />
        </mxCell>
        <mxCell id="RDOypKp-4vHWDK8OAPXg-49" value="" style="verticalLabelPosition=bottom;html=1;verticalAlign=top;align=center;shape=mxgraph.floorplan.laptop;rotation=-45;" parent="1" vertex="1">
          <mxGeometry x="876.25" y="750" width="40" height="35" as="geometry" />
        </mxCell>
        <mxCell id="RDOypKp-4vHWDK8OAPXg-50" value=",," style="verticalLabelPosition=bottom;html=1;verticalAlign=top;align=center;shape=mxgraph.floorplan.laptop;rotation=-135;" parent="1" vertex="1">
          <mxGeometry x="883.28" y="970" width="33.75" height="30" as="geometry" />
        </mxCell>
        <mxCell id="RDOypKp-4vHWDK8OAPXg-56" value="" style="verticalLabelPosition=bottom;html=1;verticalAlign=top;align=center;shape=mxgraph.floorplan.copier;rotation=-90;" parent="1" vertex="1">
          <mxGeometry x="847" y="850" width="60" height="40" as="geometry" />
        </mxCell>
        <mxCell id="RDOypKp-4vHWDK8OAPXg-57" value="" style="verticalLabelPosition=bottom;html=1;verticalAlign=top;align=center;shape=mxgraph.floorplan.dresser;rotation=90;" parent="1" vertex="1">
          <mxGeometry x="1030" y="735.2" width="245" height="65" as="geometry" />
        </mxCell>
        <mxCell id="RDOypKp-4vHWDK8OAPXg-58" value="" style="verticalLabelPosition=bottom;html=1;verticalAlign=top;align=center;shape=mxgraph.floorplan.dresser;rotation=90;" parent="1" vertex="1">
          <mxGeometry x="1102.5" y="915" width="100" height="65" as="geometry" />
        </mxCell>
        <mxCell id="RDOypKp-4vHWDK8OAPXg-59" value="" style="verticalLabelPosition=bottom;html=1;verticalAlign=top;align=center;shape=mxgraph.floorplan.dresser;rotation=90;" parent="1" vertex="1">
          <mxGeometry x="1102.5" y="1017" width="100" height="65" as="geometry" />
        </mxCell>
        <mxCell id="2VdIf14b7p2zbbm4s5Y1-19" value="" style="verticalLabelPosition=bottom;html=1;verticalAlign=top;align=center;shape=mxgraph.floorplan.doorBypass;dx=0.25;" vertex="1" parent="1">
          <mxGeometry x="690" y="1198" width="170" height="10" as="geometry" />
        </mxCell>
        <mxCell id="2VdIf14b7p2zbbm4s5Y1-20" value="" style="verticalLabelPosition=bottom;html=1;verticalAlign=top;align=center;shape=mxgraph.floorplan.office_chair;rotation=-180;" vertex="1" parent="1">
          <mxGeometry x="465" y="1297" width="40" height="43" as="geometry" />
        </mxCell>
        <mxCell id="2VdIf14b7p2zbbm4s5Y1-10" value="" style="shape=rect;shadow=0;html=1;" vertex="1" parent="1">
          <mxGeometry x="405" y="1211.5" width="160" height="100" as="geometry" />
        </mxCell>
        <mxCell id="2VdIf14b7p2zbbm4s5Y1-22" value="" style="verticalLabelPosition=bottom;html=1;verticalAlign=top;align=center;shape=mxgraph.floorplan.office_chair;" vertex="1" parent="1">
          <mxGeometry x="755" y="1320" width="40" height="43" as="geometry" />
        </mxCell>
        <mxCell id="2VdIf14b7p2zbbm4s5Y1-17" value="" style="shape=rect;shadow=0;html=1;" vertex="1" parent="1">
          <mxGeometry x="687" y="1340" width="160" height="100" as="geometry" />
        </mxCell>
        <mxCell id="2VdIf14b7p2zbbm4s5Y1-25" value="" style="verticalLabelPosition=bottom;html=1;verticalAlign=top;align=center;shape=mxgraph.floorplan.workstation;shadow=0;flipV=1;rotation=-180;" vertex="1" parent="1">
          <mxGeometry x="460" y="1248" width="50" height="40" as="geometry" />
        </mxCell>
        <mxCell id="2VdIf14b7p2zbbm4s5Y1-26" value="" style="verticalLabelPosition=bottom;html=1;verticalAlign=top;align=center;shape=mxgraph.floorplan.workstation;shadow=0;flipV=1;rotation=0;" vertex="1" parent="1">
          <mxGeometry x="750" y="1355" width="50" height="40" as="geometry" />
        </mxCell>
        <mxCell id="2VdIf14b7p2zbbm4s5Y1-27" value="" style="verticalLabelPosition=bottom;html=1;verticalAlign=top;align=center;shape=mxgraph.floorplan.refrigerator;rotation=-90;" vertex="1" parent="1">
          <mxGeometry x="405" y="1378" width="60" height="62" as="geometry" />
        </mxCell>
        <mxCell id="2VdIf14b7p2zbbm4s5Y1-31" value="" style="shape=rect;shadow=0;html=1;" vertex="1" parent="1">
          <mxGeometry x="535" y="1360" width="80" height="80" as="geometry" />
        </mxCell>
        <mxCell id="2VdIf14b7p2zbbm4s5Y1-32" value="" style="verticalLabelPosition=bottom;html=1;verticalAlign=top;align=center;shape=mxgraph.floorplan.copier;rotation=-180;" vertex="1" parent="1">
          <mxGeometry x="535" y="1376.5" width="80" height="47" as="geometry" />
        </mxCell>
        <mxCell id="2VdIf14b7p2zbbm4s5Y1-33" value="" style="verticalLabelPosition=bottom;html=1;verticalAlign=top;align=center;shape=mxgraph.floorplan.plant;" vertex="1" parent="1">
          <mxGeometry x="603" y="1212" width="47" height="51" as="geometry" />
        </mxCell>
        <mxCell id="2VdIf14b7p2zbbm4s5Y1-34" value="" style="verticalLabelPosition=bottom;html=1;verticalAlign=top;align=center;shape=mxgraph.floorplan.piano;rotation=-120;" vertex="1" parent="1">
          <mxGeometry x="445" y="1009" width="135" height="143" as="geometry" />
        </mxCell>
        <mxCell id="2VdIf14b7p2zbbm4s5Y1-35" value="" style="verticalLabelPosition=bottom;html=1;verticalAlign=top;align=center;shape=mxgraph.floorplan.bookcase;rotation=0;" vertex="1" parent="1">
          <mxGeometry x="952.5" y="641" width="120" height="30" as="geometry" />
        </mxCell>
        <mxCell id="2VdIf14b7p2zbbm4s5Y1-36" value="" style="verticalLabelPosition=bottom;html=1;verticalAlign=top;align=center;shape=mxgraph.floorplan.plant;" vertex="1" parent="1">
          <mxGeometry x="411.5" y="1141" width="47" height="51" as="geometry" />
        </mxCell>
        <mxCell id="2VdIf14b7p2zbbm4s5Y1-37" value="" style="verticalLabelPosition=bottom;html=1;verticalAlign=top;align=center;shape=mxgraph.floorplan.plant;" vertex="1" parent="1">
          <mxGeometry x="415" y="970" width="47" height="51" as="geometry" />
        </mxCell>
        <mxCell id="2VdIf14b7p2zbbm4s5Y1-38" value="" style="verticalLabelPosition=bottom;html=1;verticalAlign=top;align=center;shape=mxgraph.floorplan.plant;" vertex="1" parent="1">
          <mxGeometry x="419" y="654" width="47" height="51" as="geometry" />
        </mxCell>
        <mxCell id="2VdIf14b7p2zbbm4s5Y1-39" value="" style="verticalLabelPosition=bottom;html=1;verticalAlign=top;align=center;shape=mxgraph.floorplan.printer;rotation=-180;" vertex="1" parent="1">
          <mxGeometry x="1124.9999999999998" y="1312" width="70" height="131" as="geometry" />
        </mxCell>
        <mxCell id="2VdIf14b7p2zbbm4s5Y1-40" value="" style="verticalLabelPosition=bottom;html=1;verticalAlign=top;align=center;shape=mxgraph.floorplan.printer;rotation=-180;" vertex="1" parent="1">
          <mxGeometry x="1710" y="1309" width="70" height="131" as="geometry" />
        </mxCell>
        <mxCell id="2VdIf14b7p2zbbm4s5Y1-41" value="" style="verticalLabelPosition=bottom;html=1;verticalAlign=top;align=center;shape=mxgraph.floorplan.printer;rotation=-180;" vertex="1" parent="1">
          <mxGeometry x="1400" y="1309" width="70" height="131" as="geometry" />
        </mxCell>
        <mxCell id="2VdIf14b7p2zbbm4s5Y1-42" value="" style="verticalLabelPosition=bottom;html=1;verticalAlign=top;align=center;shape=mxgraph.floorplan.printer;rotation=0;" vertex="1" parent="1">
          <mxGeometry x="2050" y="257" width="70" height="131" as="geometry" />
        </mxCell>
        <mxCell id="2VdIf14b7p2zbbm4s5Y1-43" value="" style="verticalLabelPosition=bottom;html=1;verticalAlign=top;align=center;shape=mxgraph.floorplan.printer;rotation=0;" vertex="1" parent="1">
          <mxGeometry x="1710" y="257" width="70" height="131" as="geometry" />
        </mxCell>
        <mxCell id="2VdIf14b7p2zbbm4s5Y1-44" value="" style="verticalLabelPosition=bottom;html=1;verticalAlign=top;align=center;shape=mxgraph.floorplan.printer;rotation=0;" vertex="1" parent="1">
          <mxGeometry x="1360" y="257" width="70" height="131" as="geometry" />
        </mxCell>
        <mxCell id="2VdIf14b7p2zbbm4s5Y1-45" value=",,,." style="verticalLabelPosition=bottom;html=1;verticalAlign=top;align=center;shape=mxgraph.floorplan.office_chair;shadow=0;rotation=-180;" vertex="1" parent="1">
          <mxGeometry x="1885" y="296" width="30" height="26" as="geometry" />
        </mxCell>
        <mxCell id="2VdIf14b7p2zbbm4s5Y1-46" value="" style="shape=rect;shadow=0;html=1;" vertex="1" parent="1">
          <mxGeometry x="1860" y="258" width="80" height="50" as="geometry" />
        </mxCell>
        <mxCell id="2VdIf14b7p2zbbm4s5Y1-47" value="" style="verticalLabelPosition=bottom;html=1;verticalAlign=top;align=center;shape=mxgraph.floorplan.workstation;shadow=0;flipV=1;rotation=-180;" vertex="1" parent="1">
          <mxGeometry x="1875" y="258" width="50" height="40" as="geometry" />
        </mxCell>
        <mxCell id="2VdIf14b7p2zbbm4s5Y1-48" value=",,,." style="verticalLabelPosition=bottom;html=1;verticalAlign=top;align=center;shape=mxgraph.floorplan.office_chair;shadow=0;rotation=-180;" vertex="1" parent="1">
          <mxGeometry x="1558" y="301" width="30" height="26" as="geometry" />
        </mxCell>
        <mxCell id="2VdIf14b7p2zbbm4s5Y1-49" value="" style="shape=rect;shadow=0;html=1;" vertex="1" parent="1">
          <mxGeometry x="1540" y="256" width="80" height="50" as="geometry" />
        </mxCell>
        <mxCell id="2VdIf14b7p2zbbm4s5Y1-50" value="" style="verticalLabelPosition=bottom;html=1;verticalAlign=top;align=center;shape=mxgraph.floorplan.workstation;shadow=0;flipV=1;rotation=-180;" vertex="1" parent="1">
          <mxGeometry x="1555" y="256" width="50" height="40" as="geometry" />
        </mxCell>
        <mxCell id="2VdIf14b7p2zbbm4s5Y1-51" value=",,,." style="verticalLabelPosition=bottom;html=1;verticalAlign=top;align=center;shape=mxgraph.floorplan.office_chair;shadow=0;rotation=-180;" vertex="1" parent="1">
          <mxGeometry x="1255" y="310.25" width="30" height="26" as="geometry" />
        </mxCell>
        <mxCell id="2VdIf14b7p2zbbm4s5Y1-52" value="" style="shape=rect;shadow=0;html=1;" vertex="1" parent="1">
          <mxGeometry x="1230" y="257.75" width="80" height="50" as="geometry" />
        </mxCell>
        <mxCell id="2VdIf14b7p2zbbm4s5Y1-53" value="" style="verticalLabelPosition=bottom;html=1;verticalAlign=top;align=center;shape=mxgraph.floorplan.workstation;shadow=0;flipV=1;rotation=-180;" vertex="1" parent="1">
          <mxGeometry x="1245" y="257.75" width="50" height="40" as="geometry" />
        </mxCell>
        <mxCell id="2VdIf14b7p2zbbm4s5Y1-66" value="" style="verticalLabelPosition=bottom;html=1;verticalAlign=top;align=center;shape=mxgraph.floorplan.office_chair;shadow=0;rotation=-180;" vertex="1" parent="1">
          <mxGeometry x="1330" y="1254" width="40" height="43" as="geometry" />
        </mxCell>
        <mxCell id="2VdIf14b7p2zbbm4s5Y1-67" value="" style="shape=rect;shadow=0;html=1;" vertex="1" parent="1">
          <mxGeometry x="1310" y="1215" width="80" height="50" as="geometry" />
        </mxCell>
        <mxCell id="2VdIf14b7p2zbbm4s5Y1-68" value="" style="verticalLabelPosition=bottom;html=1;verticalAlign=top;align=center;shape=mxgraph.floorplan.workstation;shadow=0;flipV=1;rotation=-180;" vertex="1" parent="1">
          <mxGeometry x="1325" y="1220" width="50" height="40" as="geometry" />
        </mxCell>
        <mxCell id="2VdIf14b7p2zbbm4s5Y1-70" value="" style="verticalLabelPosition=bottom;html=1;verticalAlign=top;align=center;shape=mxgraph.floorplan.office_chair;shadow=0;rotation=-180;" vertex="1" parent="1">
          <mxGeometry x="1660" y="1254" width="40" height="43" as="geometry" />
        </mxCell>
        <mxCell id="2VdIf14b7p2zbbm4s5Y1-71" value="" style="shape=rect;shadow=0;html=1;" vertex="1" parent="1">
          <mxGeometry x="1640" y="1212" width="80" height="50" as="geometry" />
        </mxCell>
        <mxCell id="2VdIf14b7p2zbbm4s5Y1-72" value="" style="verticalLabelPosition=bottom;html=1;verticalAlign=top;align=center;shape=mxgraph.floorplan.workstation;shadow=0;flipV=1;rotation=-180;" vertex="1" parent="1">
          <mxGeometry x="1655" y="1220.5" width="50" height="40" as="geometry" />
        </mxCell>
        <mxCell id="2VdIf14b7p2zbbm4s5Y1-75" value="" style="verticalLabelPosition=bottom;html=1;verticalAlign=top;align=center;shape=mxgraph.floorplan.office_chair;shadow=0;rotation=-180;" vertex="1" parent="1">
          <mxGeometry x="1032.5" y="1245" width="40" height="43" as="geometry" />
        </mxCell>
        <mxCell id="2VdIf14b7p2zbbm4s5Y1-76" value="" style="shape=rect;shadow=0;html=1;" vertex="1" parent="1">
          <mxGeometry x="1010" y="1215" width="80" height="50" as="geometry" />
        </mxCell>
        <mxCell id="2VdIf14b7p2zbbm4s5Y1-77" value="" style="verticalLabelPosition=bottom;html=1;verticalAlign=top;align=center;shape=mxgraph.floorplan.workstation;shadow=0;flipV=1;rotation=-180;" vertex="1" parent="1">
          <mxGeometry x="1022.5" y="1217.5" width="50" height="40" as="geometry" />
        </mxCell>
        <mxCell id="2VdIf14b7p2zbbm4s5Y1-79" value=",,,." style="verticalLabelPosition=bottom;html=1;verticalAlign=top;align=center;shape=mxgraph.floorplan.office_chair;shadow=0;rotation=-90;" vertex="1" parent="1">
          <mxGeometry x="1095" y="1329" width="30" height="26" as="geometry" />
        </mxCell>
        <mxCell id="2VdIf14b7p2zbbm4s5Y1-80" value=",,,." style="verticalLabelPosition=bottom;html=1;verticalAlign=top;align=center;shape=mxgraph.floorplan.office_chair;shadow=0;rotation=-93;" vertex="1" parent="1">
          <mxGeometry x="1669.9999999999998" y="1329" width="30" height="26" as="geometry" />
        </mxCell>
        <mxCell id="2VdIf14b7p2zbbm4s5Y1-81" value=",,,." style="verticalLabelPosition=bottom;html=1;verticalAlign=top;align=center;shape=mxgraph.floorplan.office_chair;shadow=0;rotation=-89;" vertex="1" parent="1">
          <mxGeometry x="1360" y="1320" width="30" height="26" as="geometry" />
        </mxCell>
        <mxCell id="2VdIf14b7p2zbbm4s5Y1-82" value=",,,." style="verticalLabelPosition=bottom;html=1;verticalAlign=top;align=center;shape=mxgraph.floorplan.office_chair;shadow=0;rotation=-90;" vertex="1" parent="1">
          <mxGeometry x="2011.5" y="352" width="30" height="26" as="geometry" />
        </mxCell>
        <mxCell id="2VdIf14b7p2zbbm4s5Y1-83" value=",,,." style="verticalLabelPosition=bottom;html=1;verticalAlign=top;align=center;shape=mxgraph.floorplan.office_chair;shadow=0;rotation=90;" vertex="1" parent="1">
          <mxGeometry x="1780" y="346" width="30" height="26" as="geometry" />
        </mxCell>
        <mxCell id="2VdIf14b7p2zbbm4s5Y1-84" value=",,,." style="verticalLabelPosition=bottom;html=1;verticalAlign=top;align=center;shape=mxgraph.floorplan.office_chair;shadow=0;rotation=90;" vertex="1" parent="1">
          <mxGeometry x="1440" y="346" width="30" height="26" as="geometry" />
        </mxCell>
        <mxCell id="2VdIf14b7p2zbbm4s5Y1-85" value="" style="verticalLabelPosition=bottom;html=1;verticalAlign=top;align=center;shape=mxgraph.floorplan.dresser;rotation=-180;" vertex="1" parent="1">
          <mxGeometry x="1440" y="427" width="80.5" height="47" as="geometry" />
        </mxCell>
        <mxCell id="2VdIf14b7p2zbbm4s5Y1-86" value="" style="verticalLabelPosition=bottom;html=1;verticalAlign=top;align=center;shape=mxgraph.floorplan.dresser;rotation=-180;" vertex="1" parent="1">
          <mxGeometry x="1750" y="429" width="85" height="48" as="geometry" />
        </mxCell>
        <mxCell id="2VdIf14b7p2zbbm4s5Y1-87" value="" style="verticalLabelPosition=bottom;html=1;verticalAlign=top;align=center;shape=mxgraph.floorplan.dresser;rotation=-180;" vertex="1" parent="1">
          <mxGeometry x="2070" y="429" width="85" height="48" as="geometry" />
        </mxCell>
        <mxCell id="2VdIf14b7p2zbbm4s5Y1-88" value="" style="verticalLabelPosition=bottom;html=1;verticalAlign=top;align=center;shape=mxgraph.floorplan.dresser;rotation=-180;" vertex="1" parent="1">
          <mxGeometry x="1234" y="1391" width="94" height="52" as="geometry" />
        </mxCell>
        <mxCell id="2VdIf14b7p2zbbm4s5Y1-89" value="" style="verticalLabelPosition=bottom;html=1;verticalAlign=top;align=center;shape=mxgraph.floorplan.dresser;rotation=-180;" vertex="1" parent="1">
          <mxGeometry x="864" y="1391" width="170" height="52" as="geometry" />
        </mxCell>
        <mxCell id="2VdIf14b7p2zbbm4s5Y1-90" value="" style="verticalLabelPosition=bottom;html=1;verticalAlign=top;align=center;shape=mxgraph.floorplan.dresser;rotation=-180;" vertex="1" parent="1">
          <mxGeometry x="1538" y="1388" width="94" height="52" as="geometry" />
        </mxCell>
        <mxCell id="2VdIf14b7p2zbbm4s5Y1-113" value="" style="verticalLabelPosition=bottom;html=1;verticalAlign=top;align=center;shape=mxgraph.floorplan.office_chair;shadow=0;rotation=-15;" vertex="1" parent="1">
          <mxGeometry x="1475" y="960" width="40" height="43" as="geometry" />
        </mxCell>
        <mxCell id="2VdIf14b7p2zbbm4s5Y1-114" value="" style="verticalLabelPosition=bottom;html=1;verticalAlign=top;align=center;shape=mxgraph.floorplan.office_chair;shadow=0;direction=west;rotation=20;" vertex="1" parent="1">
          <mxGeometry x="1473" y="1028" width="40" height="43" as="geometry" />
        </mxCell>
        <mxCell id="2VdIf14b7p2zbbm4s5Y1-115" value="" style="verticalLabelPosition=bottom;html=1;verticalAlign=top;align=center;shape=mxgraph.floorplan.office_chair;shadow=0;direction=north;rotation=0;" vertex="1" parent="1">
          <mxGeometry x="1427" y="991.5" width="43" height="40" as="geometry" />
        </mxCell>
        <mxCell id="2VdIf14b7p2zbbm4s5Y1-117" value="" style="verticalLabelPosition=bottom;html=1;verticalAlign=top;align=center;shape=mxgraph.floorplan.office_chair;shadow=0;rotation=90;" vertex="1" parent="1">
          <mxGeometry x="1600" y="988.5" width="40" height="43" as="geometry" />
        </mxCell>
        <mxCell id="2VdIf14b7p2zbbm4s5Y1-118" value="" style="verticalLabelPosition=bottom;html=1;verticalAlign=top;align=center;shape=mxgraph.floorplan.office_chair;shadow=0;direction=west;" vertex="1" parent="1">
          <mxGeometry x="1513" y="1030" width="40" height="43" as="geometry" />
        </mxCell>
        <mxCell id="2VdIf14b7p2zbbm4s5Y1-119" value="" style="verticalLabelPosition=bottom;html=1;verticalAlign=top;align=center;shape=mxgraph.floorplan.office_chair;shadow=0;rotation=-204;" vertex="1" parent="1">
          <mxGeometry x="1552" y="1023" width="40" height="43" as="geometry" />
        </mxCell>
        <mxCell id="2VdIf14b7p2zbbm4s5Y1-121" value="" style="verticalLabelPosition=bottom;html=1;verticalAlign=top;align=center;shape=mxgraph.floorplan.office_chair;shadow=0;rotation=15;" vertex="1" parent="1">
          <mxGeometry x="1558" y="960" width="40" height="43" as="geometry" />
        </mxCell>
        <mxCell id="2VdIf14b7p2zbbm4s5Y1-122" value="" style="verticalLabelPosition=bottom;html=1;verticalAlign=top;align=center;shape=mxgraph.floorplan.office_chair;shadow=0;direction=west;rotation=-180;" vertex="1" parent="1">
          <mxGeometry x="1515" y="957" width="40" height="43" as="geometry" />
        </mxCell>
        <mxCell id="2VdIf14b7p2zbbm4s5Y1-123" value="" style="shape=ellipse;shadow=0;html=1;" vertex="1" parent="1">
          <mxGeometry x="1446.75" y="975" width="175.5" height="70" as="geometry" />
        </mxCell>
        <mxCell id="2VdIf14b7p2zbbm4s5Y1-124" value="" style="verticalLabelPosition=bottom;html=1;verticalAlign=top;align=center;shape=mxgraph.floorplan.bookcase;rotation=-90;" vertex="1" parent="1">
          <mxGeometry x="1353" y="1028" width="77" height="21" as="geometry" />
        </mxCell>
        <mxCell id="2VdIf14b7p2zbbm4s5Y1-125" value="" style="verticalLabelPosition=bottom;html=1;verticalAlign=top;align=center;shape=mxgraph.floorplan.dresser;" vertex="1" parent="1">
          <mxGeometry x="1470" y="865" width="147" height="36" as="geometry" />
        </mxCell>
        <mxCell id="2VdIf14b7p2zbbm4s5Y1-126" value="" style="verticalLabelPosition=bottom;html=1;verticalAlign=top;align=center;shape=mxgraph.floorplan.flat_tv;" vertex="1" parent="1">
          <mxGeometry x="1480" y="878" width="130" height="10" as="geometry" />
        </mxCell>
        <mxCell id="2VdIf14b7p2zbbm4s5Y1-127" value="" style="verticalLabelPosition=bottom;html=1;verticalAlign=top;align=center;shape=mxgraph.floorplan.plant;" vertex="1" parent="1">
          <mxGeometry x="1393" y="878" width="47" height="51" as="geometry" />
        </mxCell>
        <mxCell id="2VdIf14b7p2zbbm4s5Y1-129" value="" style="verticalLabelPosition=bottom;html=1;verticalAlign=top;align=center;shape=mxgraph.floorplan.chair;shadow=0;" vertex="1" parent="1">
          <mxGeometry x="1406.75" y="649" width="40" height="52" as="geometry" />
        </mxCell>
        <mxCell id="2VdIf14b7p2zbbm4s5Y1-130" value="" style="verticalLabelPosition=bottom;html=1;verticalAlign=top;align=center;shape=mxgraph.floorplan.chair;shadow=0;direction=west;" vertex="1" parent="1">
          <mxGeometry x="1406.75" y="698" width="40" height="52" as="geometry" />
        </mxCell>
        <mxCell id="2VdIf14b7p2zbbm4s5Y1-131" value="" style="verticalLabelPosition=bottom;html=1;verticalAlign=top;align=center;shape=mxgraph.floorplan.chair;shadow=0;direction=north;" vertex="1" parent="1">
          <mxGeometry x="1380" y="680" width="52" height="40" as="geometry" />
        </mxCell>
        <mxCell id="2VdIf14b7p2zbbm4s5Y1-132" value="" style="verticalLabelPosition=bottom;html=1;verticalAlign=top;align=center;shape=mxgraph.floorplan.chair;shadow=0;direction=south" vertex="1" parent="1">
          <mxGeometry x="1476" y="680" width="52" height="40" as="geometry" />
        </mxCell>
        <mxCell id="2VdIf14b7p2zbbm4s5Y1-133" value="" style="verticalLabelPosition=bottom;html=1;verticalAlign=top;align=center;shape=mxgraph.floorplan.chair;shadow=0;" vertex="1" parent="1">
          <mxGeometry x="1446.75" y="650" width="40" height="52" as="geometry" />
        </mxCell>
        <mxCell id="2VdIf14b7p2zbbm4s5Y1-134" value="" style="verticalLabelPosition=bottom;html=1;verticalAlign=top;align=center;shape=mxgraph.floorplan.chair;shadow=0;direction=west;" vertex="1" parent="1">
          <mxGeometry x="1446.75" y="698" width="40" height="52" as="geometry" />
        </mxCell>
        <mxCell id="2VdIf14b7p2zbbm4s5Y1-135" value="" style="shape=rect;shadow=0;html=1;" vertex="1" parent="1">
          <mxGeometry x="1403.5" y="671" width="95" height="59" as="geometry" />
        </mxCell>
        <mxCell id="2VdIf14b7p2zbbm4s5Y1-137" value="" style="verticalLabelPosition=bottom;html=1;verticalAlign=top;align=center;shape=mxgraph.floorplan.range_2;rotation=-180;" vertex="1" parent="1">
          <mxGeometry x="1387.5" y="788" width="75" height="62" as="geometry" />
        </mxCell>
        <mxCell id="2VdIf14b7p2zbbm4s5Y1-139" value="" style="verticalLabelPosition=bottom;html=1;verticalAlign=top;align=center;shape=mxgraph.floorplan.table;" vertex="1" parent="1">
          <mxGeometry x="1473" y="800" width="90" height="50" as="geometry" />
        </mxCell>
        <mxCell id="2VdIf14b7p2zbbm4s5Y1-140" value="" style="verticalLabelPosition=bottom;html=1;verticalAlign=top;align=center;shape=mxgraph.floorplan.refrigerator;rotation=0;" vertex="1" parent="1">
          <mxGeometry x="1622.25" y="645" width="60" height="62" as="geometry" />
        </mxCell>
        <mxCell id="2VdIf14b7p2zbbm4s5Y1-138" value="" style="verticalLabelPosition=bottom;html=1;verticalAlign=top;align=center;shape=mxgraph.floorplan.water_cooler;" vertex="1" parent="1">
          <mxGeometry x="1504.5" y="805" width="40" height="40" as="geometry" />
        </mxCell>
        <mxCell id="2VdIf14b7p2zbbm4s5Y1-141" value="" style="verticalLabelPosition=bottom;html=1;verticalAlign=top;align=center;shape=mxgraph.floorplan.sink_22;rotation=0;" vertex="1" parent="1">
          <mxGeometry x="1572.71" y="649" width="40" height="35" as="geometry" />
        </mxCell>
        <mxCell id="2VdIf14b7p2zbbm4s5Y1-142" value="" style="verticalLabelPosition=bottom;html=1;verticalAlign=top;align=center;shape=mxgraph.floorplan.plant;" vertex="1" parent="1">
          <mxGeometry x="1592" y="799" width="47" height="51" as="geometry" />
        </mxCell>
        <mxCell id="2VdIf14b7p2zbbm4s5Y1-144" value="" style="verticalLabelPosition=bottom;html=1;verticalAlign=top;align=center;strokeWidth=1;shape=mxgraph.floorplan.wall;fillColor=#000000;rounded=0;shadow=0;comic=0;fontFamily=Verdana;fontSize=12;" vertex="1" parent="1">
          <mxGeometry x="1871" y="865" width="289" height="10" as="geometry" />
        </mxCell>
        <mxCell id="2VdIf14b7p2zbbm4s5Y1-145" value="" style="verticalLabelPosition=bottom;html=1;verticalAlign=top;align=center;strokeWidth=1;shape=mxgraph.floorplan.wall;fillColor=#000000;rounded=0;shadow=0;comic=0;fontFamily=Verdana;fontSize=12;rotation=90;" vertex="1" parent="1">
          <mxGeometry x="1804.38" y="713.88" width="126.25" height="10" as="geometry" />
        </mxCell>
        <mxCell id="2VdIf14b7p2zbbm4s5Y1-146" value="" style="verticalLabelPosition=bottom;html=1;verticalAlign=top;align=center;strokeWidth=1;shape=mxgraph.floorplan.wall;fillColor=#000000;rounded=0;shadow=0;comic=0;fontFamily=Verdana;fontSize=12;rotation=90;" vertex="1" parent="1">
          <mxGeometry x="1802.5" y="931.5" width="135" height="10" as="geometry" />
        </mxCell>
        <mxCell id="2VdIf14b7p2zbbm4s5Y1-149" value="" style="verticalLabelPosition=bottom;html=1;verticalAlign=top;align=center;strokeWidth=1;shape=mxgraph.floorplan.doorLeft;rounded=0;shadow=0;comic=0;fontFamily=Verdana;fontSize=12;rotation=-90;" vertex="1" parent="1">
          <mxGeometry x="1867" y="785" width="80" height="85" as="geometry" />
        </mxCell>
        <mxCell id="2VdIf14b7p2zbbm4s5Y1-150" value="" style="verticalLabelPosition=bottom;html=1;verticalAlign=top;align=center;strokeWidth=1;shape=mxgraph.floorplan.doorLeft;rounded=0;shadow=0;comic=0;fontFamily=Verdana;fontSize=12;rotation=-90;" vertex="1" parent="1">
          <mxGeometry x="1867" y="986" width="80" height="85" as="geometry" />
        </mxCell>
        <mxCell id="2VdIf14b7p2zbbm4s5Y1-151" value="" style="verticalLabelPosition=bottom;html=1;verticalAlign=top;align=center;strokeWidth=1;shape=mxgraph.floorplan.wall;fillColor=#000000;rounded=0;shadow=0;comic=0;fontFamily=Verdana;fontSize=12;" vertex="1" parent="1">
          <mxGeometry x="2020" y="720" width="140" height="10" as="geometry" />
        </mxCell>
        <mxCell id="2VdIf14b7p2zbbm4s5Y1-152" value="" style="verticalLabelPosition=bottom;html=1;verticalAlign=top;align=center;strokeWidth=1;shape=mxgraph.floorplan.wall;fillColor=#000000;rounded=0;shadow=0;comic=0;fontFamily=Verdana;fontSize=12;" vertex="1" parent="1">
          <mxGeometry x="2020" y="788" width="140" height="10" as="geometry" />
        </mxCell>
        <mxCell id="2VdIf14b7p2zbbm4s5Y1-153" value="" style="verticalLabelPosition=bottom;html=1;verticalAlign=top;align=center;strokeWidth=1;shape=mxgraph.floorplan.wall;fillColor=#000000;rounded=0;shadow=0;comic=0;fontFamily=Verdana;fontSize=12;" vertex="1" parent="1">
          <mxGeometry x="1975" y="1003" width="180" height="10" as="geometry" />
        </mxCell>
        <mxCell id="2VdIf14b7p2zbbm4s5Y1-154" value="" style="verticalLabelPosition=bottom;html=1;verticalAlign=top;align=center;strokeWidth=1;shape=mxgraph.floorplan.wall;fillColor=#000000;rounded=0;shadow=0;comic=0;fontFamily=Verdana;fontSize=12;" vertex="1" parent="1">
          <mxGeometry x="1975" y="931.5" width="180" height="10" as="geometry" />
        </mxCell>
        <mxCell id="2VdIf14b7p2zbbm4s5Y1-155" value="" style="verticalLabelPosition=bottom;html=1;verticalAlign=top;align=center;shape=mxgraph.floorplan.toilet;rotation=90;" vertex="1" parent="1">
          <mxGeometry x="2120" y="885.5" width="30" height="36" as="geometry" />
        </mxCell>
        <mxCell id="2VdIf14b7p2zbbm4s5Y1-157" value="" style="verticalLabelPosition=bottom;html=1;verticalAlign=top;align=center;shape=mxgraph.floorplan.toilet;rotation=90;" vertex="1" parent="1">
          <mxGeometry x="2120" y="955.5" width="30" height="36" as="geometry" />
        </mxCell>
        <mxCell id="2VdIf14b7p2zbbm4s5Y1-158" value="" style="verticalLabelPosition=bottom;html=1;verticalAlign=top;align=center;shape=mxgraph.floorplan.toilet;rotation=90;" vertex="1" parent="1">
          <mxGeometry x="2120" y="671" width="30" height="36" as="geometry" />
        </mxCell>
        <mxCell id="2VdIf14b7p2zbbm4s5Y1-159" value="" style="verticalLabelPosition=bottom;html=1;verticalAlign=top;align=center;shape=mxgraph.floorplan.toilet;rotation=90;" vertex="1" parent="1">
          <mxGeometry x="2120" y="739.5" width="30" height="36" as="geometry" />
        </mxCell>
        <mxCell id="2VdIf14b7p2zbbm4s5Y1-160" value="" style="verticalLabelPosition=bottom;html=1;verticalAlign=top;align=center;shape=mxgraph.floorplan.toilet;rotation=90;" vertex="1" parent="1">
          <mxGeometry x="2120" y="814" width="30" height="36" as="geometry" />
        </mxCell>
        <mxCell id="2VdIf14b7p2zbbm4s5Y1-161" value="" style="verticalLabelPosition=bottom;html=1;verticalAlign=top;align=center;shape=mxgraph.floorplan.toilet;rotation=90;" vertex="1" parent="1">
          <mxGeometry x="2120" y="1026.5" width="30" height="36" as="geometry" />
        </mxCell>
        <mxCell id="2VdIf14b7p2zbbm4s5Y1-162" value="" style="verticalLabelPosition=bottom;html=1;verticalAlign=top;align=center;strokeWidth=1;shape=mxgraph.floorplan.doorLeft;rounded=0;shadow=0;comic=0;fontFamily=Verdana;fontSize=12;rotation=-90;" vertex="1" parent="1">
          <mxGeometry x="1974.5" y="1006.5" width="64" height="64" as="geometry" />
        </mxCell>
        <mxCell id="2VdIf14b7p2zbbm4s5Y1-163" value="" style="verticalLabelPosition=bottom;html=1;verticalAlign=top;align=center;strokeWidth=1;shape=mxgraph.floorplan.doorLeft;rounded=0;shadow=0;comic=0;fontFamily=Verdana;fontSize=12;rotation=-90;" vertex="1" parent="1">
          <mxGeometry x="1974" y="933" width="65" height="68" as="geometry" />
        </mxCell>
        <mxCell id="2VdIf14b7p2zbbm4s5Y1-164" value="" style="verticalLabelPosition=bottom;html=1;verticalAlign=top;align=center;strokeWidth=1;shape=mxgraph.floorplan.doorLeft;rounded=0;shadow=0;comic=0;fontFamily=Verdana;fontSize=12;rotation=-90;" vertex="1" parent="1">
          <mxGeometry x="1984" y="863" width="55" height="78" as="geometry" />
        </mxCell>
        <mxCell id="2VdIf14b7p2zbbm4s5Y1-165" value="" style="verticalLabelPosition=bottom;html=1;verticalAlign=top;align=center;strokeWidth=1;shape=mxgraph.floorplan.doorLeft;rounded=0;shadow=0;comic=0;fontFamily=Verdana;fontSize=12;rotation=-90;" vertex="1" parent="1">
          <mxGeometry x="2006.5" y="795.5" width="80" height="58" as="geometry" />
        </mxCell>
        <mxCell id="2VdIf14b7p2zbbm4s5Y1-166" value="" style="verticalLabelPosition=bottom;html=1;verticalAlign=top;align=center;strokeWidth=1;shape=mxgraph.floorplan.doorLeft;rounded=0;shadow=0;comic=0;fontFamily=Verdana;fontSize=12;rotation=-90;" vertex="1" parent="1">
          <mxGeometry x="2029.9" y="715.3" width="60" height="84.8" as="geometry" />
        </mxCell>
        <mxCell id="2VdIf14b7p2zbbm4s5Y1-167" value="" style="verticalLabelPosition=bottom;html=1;verticalAlign=top;align=center;strokeWidth=1;shape=mxgraph.floorplan.doorLeft;rounded=0;shadow=0;comic=0;fontFamily=Verdana;fontSize=12;rotation=-92;" vertex="1" parent="1">
          <mxGeometry x="2006.5" y="668.25" width="63" height="41.5" as="geometry" />
        </mxCell>
        <mxCell id="2VdIf14b7p2zbbm4s5Y1-168" value="" style="verticalLabelPosition=bottom;html=1;verticalAlign=top;align=center;shape=mxgraph.floorplan.sink_double2;" vertex="1" parent="1">
          <mxGeometry x="1904" y="664" width="80" height="35" as="geometry" />
        </mxCell>
        <mxCell id="2VdIf14b7p2zbbm4s5Y1-169" value="" style="verticalLabelPosition=bottom;html=1;verticalAlign=top;align=center;shape=mxgraph.floorplan.sink_double2;rotation=-90;" vertex="1" parent="1">
          <mxGeometry x="1857.5" y="920.5" width="80" height="35" as="geometry" />
        </mxCell>
        <mxCell id="2VdIf14b7p2zbbm4s5Y1-170" value="" style="verticalLabelPosition=bottom;html=1;verticalAlign=top;align=center;shape=mxgraph.floorplan.plant;" vertex="1" parent="1">
          <mxGeometry x="940" y="495" width="47" height="51" as="geometry" />
        </mxCell>
        <mxCell id="2VdIf14b7p2zbbm4s5Y1-171" value="" style="verticalLabelPosition=bottom;html=1;verticalAlign=top;align=center;shape=mxgraph.floorplan.plant;" vertex="1" parent="1">
          <mxGeometry x="1010" y="496" width="47" height="51" as="geometry" />
        </mxCell>
        <mxCell id="2VdIf14b7p2zbbm4s5Y1-172" value="" style="verticalLabelPosition=bottom;html=1;verticalAlign=top;align=center;shape=mxgraph.floorplan.plant;" vertex="1" parent="1">
          <mxGeometry x="1325" y="828" width="47" height="51" as="geometry" />
        </mxCell>
        <mxCell id="2VdIf14b7p2zbbm4s5Y1-173" value="" style="verticalLabelPosition=bottom;html=1;verticalAlign=top;align=center;shape=mxgraph.floorplan.plant;" vertex="1" parent="1">
          <mxGeometry x="2004" y="1090" width="47" height="51" as="geometry" />
        </mxCell>
        <mxCell id="2VdIf14b7p2zbbm4s5Y1-174" value="" style="verticalLabelPosition=bottom;html=1;verticalAlign=top;align=center;shape=mxgraph.floorplan.plant;" vertex="1" parent="1">
          <mxGeometry x="1380" y="1152" width="47" height="51" as="geometry" />
        </mxCell>
        <mxCell id="2VdIf14b7p2zbbm4s5Y1-175" value="" style="verticalLabelPosition=bottom;html=1;verticalAlign=top;align=center;strokeWidth=1;shape=mxgraph.floorplan.wall;fillColor=#000000;direction=south;rounded=0;shadow=0;comic=0;fontFamily=Verdana;fontSize=12;rotation=90;" vertex="1" parent="1">
          <mxGeometry x="1954.25" y="1089.25" width="10" height="229.5" as="geometry" />
        </mxCell>
        <mxCell id="2VdIf14b7p2zbbm4s5Y1-177" value="" style="verticalLabelPosition=bottom;html=1;verticalAlign=top;align=center;shape=mxgraph.floorplan.doorSlidingGlass;dx=0.25;" vertex="1" parent="1">
          <mxGeometry x="2058" y="1198" width="104" height="10" as="geometry" />
        </mxCell>
        <mxCell id="2VdIf14b7p2zbbm4s5Y1-178" value="" style="verticalLabelPosition=bottom;html=1;verticalAlign=top;align=center;shape=mxgraph.floorplan.dresser;" vertex="1" parent="1">
          <mxGeometry x="1854" y="1221" width="100" height="65" as="geometry" />
        </mxCell>
        <mxCell id="2VdIf14b7p2zbbm4s5Y1-179" value="" style="verticalLabelPosition=bottom;html=1;verticalAlign=top;align=center;shape=mxgraph.floorplan.dresser;" vertex="1" parent="1">
          <mxGeometry x="1958" y="1220" width="100" height="65" as="geometry" />
        </mxCell>
        <mxCell id="2VdIf14b7p2zbbm4s5Y1-180" value="" style="verticalLabelPosition=bottom;html=1;verticalAlign=top;align=center;shape=mxgraph.floorplan.dresser;rotation=-180;" vertex="1" parent="1">
          <mxGeometry x="1897" y="1375" width="223" height="65" as="geometry" />
        </mxCell>
        <mxCell id="2VdIf14b7p2zbbm4s5Y1-181" value="" style="verticalLabelPosition=bottom;html=1;verticalAlign=top;align=center;shape=mxgraph.floorplan.fireplace;" vertex="1" parent="1">
          <mxGeometry x="580" y="1141" width="80" height="50" as="geometry" />
        </mxCell>
        <mxCell id="2VdIf14b7p2zbbm4s5Y1-196" value="P2" style="ellipse;whiteSpace=wrap;html=1;aspect=fixed;" vertex="1" parent="1">
          <mxGeometry x="936.25" y="975.5" width="54.5" height="54.5" as="geometry" />
        </mxCell>
        <mxCell id="2VdIf14b7p2zbbm4s5Y1-197" value="P1" style="ellipse;whiteSpace=wrap;html=1;aspect=fixed;" vertex="1" parent="1">
          <mxGeometry x="932.5" y="730.5" width="54.5" height="54.5" as="geometry" />
        </mxCell>
        <mxCell id="2VdIf14b7p2zbbm4s5Y1-199" value="P3" style="ellipse;whiteSpace=wrap;html=1;aspect=fixed;" vertex="1" parent="1">
          <mxGeometry x="916.25" y="860.5" width="54.5" height="54.5" as="geometry" />
        </mxCell>
        <mxCell id="2VdIf14b7p2zbbm4s5Y1-200" value="P4" style="ellipse;whiteSpace=wrap;html=1;aspect=fixed;" vertex="1" parent="1">
          <mxGeometry x="687" y="1375" width="54.5" height="54.5" as="geometry" />
        </mxCell>
        <mxCell id="2VdIf14b7p2zbbm4s5Y1-201" value="P5" style="ellipse;whiteSpace=wrap;html=1;aspect=fixed;" vertex="1" parent="1">
          <mxGeometry x="524.5" y="1228.5" width="54.5" height="54.5" as="geometry" />
        </mxCell>
        <mxCell id="2VdIf14b7p2zbbm4s5Y1-202" value="P6" style="ellipse;whiteSpace=wrap;html=1;aspect=fixed;" vertex="1" parent="1">
          <mxGeometry x="590" y="1305.5" width="54.5" height="54.5" as="geometry" />
        </mxCell>
        <mxCell id="2VdIf14b7p2zbbm4s5Y1-203" value="P7" style="ellipse;whiteSpace=wrap;html=1;aspect=fixed;" vertex="1" parent="1">
          <mxGeometry x="415.25" y="262.5" width="54.5" height="54.5" as="geometry" />
        </mxCell>
        <mxCell id="2VdIf14b7p2zbbm4s5Y1-205" value="P9" style="ellipse;whiteSpace=wrap;html=1;aspect=fixed;" vertex="1" parent="1">
          <mxGeometry x="1285" y="329.5" width="54.5" height="54.5" as="geometry" />
        </mxCell>
        <mxCell id="2VdIf14b7p2zbbm4s5Y1-206" value="P15" style="ellipse;whiteSpace=wrap;html=1;aspect=fixed;" vertex="1" parent="1">
          <mxGeometry x="1446.75" y="902.5" width="54.5" height="54.5" as="geometry" />
        </mxCell>
        <mxCell id="2VdIf14b7p2zbbm4s5Y1-207" value="P12" style="ellipse;whiteSpace=wrap;html=1;aspect=fixed;" vertex="1" parent="1">
          <mxGeometry x="1750" y="1220" width="54.5" height="54.5" as="geometry" />
        </mxCell>
        <mxCell id="2VdIf14b7p2zbbm4s5Y1-208" value="P13" style="ellipse;whiteSpace=wrap;html=1;aspect=fixed;" vertex="1" parent="1">
          <mxGeometry x="1406.75" y="1220" width="54.5" height="54.5" as="geometry" />
        </mxCell>
        <mxCell id="2VdIf14b7p2zbbm4s5Y1-209" value="P14" style="ellipse;whiteSpace=wrap;html=1;aspect=fixed;" vertex="1" parent="1">
          <mxGeometry x="1102.5" y="1221" width="54.5" height="54.5" as="geometry" />
        </mxCell>
        <mxCell id="2VdIf14b7p2zbbm4s5Y1-210" value="P11" style="ellipse;whiteSpace=wrap;html=1;aspect=fixed;" vertex="1" parent="1">
          <mxGeometry x="1916.75" y="322" width="54.5" height="54.5" as="geometry" />
        </mxCell>
        <mxCell id="2VdIf14b7p2zbbm4s5Y1-211" value="P10" style="ellipse;whiteSpace=wrap;html=1;aspect=fixed;" vertex="1" parent="1">
          <mxGeometry x="1617" y="310.25" width="54.5" height="54.5" as="geometry" />
        </mxCell>
        <mxCell id="2VdIf14b7p2zbbm4s5Y1-212" value="P16" style="ellipse;whiteSpace=wrap;html=1;aspect=fixed;" vertex="1" parent="1">
          <mxGeometry x="1135" y="398" width="54.5" height="54.5" as="geometry" />
        </mxCell>
        <mxCell id="2VdIf14b7p2zbbm4s5Y1-215" value="" style="verticalLabelPosition=bottom;html=1;verticalAlign=top;align=center;shape=mxgraph.floorplan.sofa;rotation=0;" vertex="1" parent="1">
          <mxGeometry x="550" y="256" width="67" height="59.75" as="geometry" />
        </mxCell>
        <mxCell id="2VdIf14b7p2zbbm4s5Y1-217" value="" style="verticalLabelPosition=bottom;html=1;verticalAlign=top;align=center;shape=mxgraph.floorplan.sofa;rotation=0;" vertex="1" parent="1">
          <mxGeometry x="479" y="256" width="67" height="59.75" as="geometry" />
        </mxCell>
        <mxCell id="2VdIf14b7p2zbbm4s5Y1-218" value="" style="verticalLabelPosition=bottom;html=1;verticalAlign=top;align=center;shape=mxgraph.floorplan.sofa;rotation=-180;" vertex="1" parent="1">
          <mxGeometry x="550" y="483" width="76" height="53.26" as="geometry" />
        </mxCell>
        <mxCell id="2VdIf14b7p2zbbm4s5Y1-219" value="" style="image;html=1;image=img/lib/clip_art/networking/Wireless_Router_N_128x128.png" vertex="1" parent="1">
          <mxGeometry x="419.5" y="240" width="38" height="52" as="geometry" />
        </mxCell>
      </root>
    </mxGraphModel>
  </diagram>
</mxfile>
